<svg xmlns="http://www.w3.org/2000/svg" viewBox="0 0 512 512" xml:space="preserve"><path style="fill:#fbc640" d="M326.812 182.52H185.188c-10.671 0-19.321-8.65-19.321-19.321V41.658h59.318L256 71.842h90.134v91.357c-.001 10.671-8.652 19.321-19.322 19.321M172.015 470.34H30.391c-10.671 0-19.321-8.65-19.321-19.321V329.477h59.318l30.814 30.184h90.134v91.357c0 10.672-8.651 19.322-19.321 19.322m309.594 0H339.985c-10.671 0-19.321-8.65-19.321-19.321V329.477h59.318l30.814 30.184h90.134v91.357c0 10.672-8.651 19.322-19.321 19.322"/><path style="fill:#231f20" d="M185.187 193.591h141.624c16.758 0 30.391-13.633 30.391-30.391V71.842c0-6.113-4.957-11.07-11.07-11.07h-85.615l-27.585-27.023a11.07 11.07 0 0 0-7.747-3.162h-59.318c-6.113 0-11.07 4.957-11.07 11.07v121.542c0 16.759 13.634 30.392 30.39 30.392m-8.249-140.863h43.729l27.585 27.023a11.07 11.07 0 0 0 7.747 3.162h79.063v80.286c0 4.549-3.702 8.251-8.251 8.251H185.187c-4.549 0-8.25-3.702-8.25-8.251zM500.93 348.593h-85.615L387.73 321.57a11.07 11.07 0 0 0-7.747-3.162h-59.319c-6.113 0-11.07 4.957-11.07 11.07v64.554H267.07V292.185c0-6.113-4.957-11.07-11.07-11.07s-11.07 4.957-11.07 11.07v101.847h-42.523v-34.368c0-6.113-4.957-11.07-11.07-11.07h-85.615l-27.585-27.023a11.07 11.07 0 0 0-7.747-3.162H11.07c-6.113 0-11.07 4.957-11.07 11.07v121.542c0 16.758 13.633 30.391 30.39 30.391h141.624c16.758 0 30.391-13.633 30.391-30.391v-34.848h107.187v34.848c0 16.758 13.633 30.391 30.391 30.391h141.624c16.758 0 30.391-13.633 30.391-30.391v-91.356c.002-6.116-4.954-11.072-11.068-11.072M180.265 451.019c0 4.549-3.702 8.251-8.251 8.251H30.39c-4.549 0-8.25-3.702-8.25-8.251V340.548h43.73l27.585 27.023a11.07 11.07 0 0 0 7.747 3.162h79.063zm309.594 0c0 4.549-3.702 8.251-8.251 8.251H339.984c-4.549 0-8.251-3.702-8.251-8.251V340.548h43.73l27.585 27.023a11.07 11.07 0 0 0 7.747 3.162h79.063zM243.544 239.135v3.231c0 6.113 4.957 11.07 11.07 11.07s11.07-4.957 11.07-11.07v-3.231c0-6.113-4.957-11.07-11.07-11.07s-11.07 4.956-11.07 11.07"/></svg>